<svg class="icon" viewBox="0 0 1024 1024" xmlns="http://www.w3.org/2000/svg" width="200" height="200"><defs><style/></defs><path d="M853.333 956.587H170.667c-66.031 0-102.4-36.37-102.4-102.4V256c0-60.109 30.122-95.642 85.333-101.53V85.333a17.067 17.067 0 0 1 17.067-17.066h682.666A17.067 17.067 0 0 1 870.4 85.333V238.08h68.267a17.067 17.067 0 0 1 17.066 17.067v599.04c0 66.03-36.369 102.4-102.4 102.4zM170.667 187.733c-47.224 0-68.267 21.044-68.267 68.267v598.187c0 47.223 21.043 68.266 68.267 68.266h682.666c47.224 0 68.267-21.043 68.267-68.266V272.213H512a17.067 17.067 0 0 1-17.067-17.066v-67.414H170.667zm358.4 50.347h307.2V102.4H187.733v51.2H512a17.067 17.067 0 0 1 17.067 17.067v67.413z"/><path d="M341.333 768V426.667h341.334V768H341.333zm103.254-256v170.667l152.746-85.334L444.587 512z"/><path d="M682.667 785.067H341.333A17.067 17.067 0 0 1 324.267 768V426.667a17.067 17.067 0 0 1 17.066-17.067h341.334a17.067 17.067 0 0 1 17.066 17.067V768a17.067 17.067 0 0 1-17.066 17.067zM358.4 750.933h307.2v-307.2H358.4v307.2z"/></svg>